{"extensionsUsed" : ["KHR_materials_pbrSpecularGlossiness"], "accessors" : [{"bufferView" : 0, "byteOffset" : 0, "componentType" : 5123, "count" : 2352, "type" : "SCALAR", "max" : [2048], "min" : [0]}, {"bufferView" : 1, "byteOffset" : 0, "componentType" : 5126, "count" : 2049, "type" : "VEC3", "max" : [163.37181091308594, 45.4485969543457, 0], "min" : [5.8603129386901855, -0.7481250762939453, -15], "name" : "POSITION"}, {"bufferView" : 1, "byteOffset" : 12, "componentType" : 5126, "count" : 2049, "type" : "VEC3", "max" : [1.0000044107437134, 1.0000044107437134, 1.0000044107437134], "min" : [-1.0000044107437134, -1.0000044107437134, -1.0000044107437134], "name" : "NORMAL"}, {"bufferView" : 0, "byteOffset" : 4704, "componentType" : 5123, "count" : 960, "type" : "SCALAR", "max" : [807], "min" : [0]}, {"bufferView" : 2, "byteOffset" : 0, "componentType" : 5126, "count" : 808, "type" : "VEC3", "max" : [146.22042846679688, 9.297042846679688, 146.22042846679688], "min" : [-146.22042846679688, -9.297042846679688, -146.2204132080078], "name" : "POSITION"}, {"bufferView" : 2, "byteOffset" : 12, "componentType" : 5126, "count" : 808, "type" : "VEC3", "max" : [1.0000044107437134, 1.0000044107437134, 1.0000044107437134], "min" : [-1.0000044107437134, -1.0000044107437134, -1.0000044107437134], "name" : "NORMAL"}, {"bufferView" : 2, "byteOffset" : 24, "componentType" : 5126, "count" : 808, "type" : "VEC2", "max" : [0.7261844873428345, 0.9999282360076904], "min" : [0.00016705691814422607, 0.00024321675300598145], "name" : "TEXCOORD_0"}, {"bufferView" : 2, "byteOffset" : 32, "componentType" : 5126, "count" : 808, "type" : "VEC3", "max" : [1, 1, 1], "min" : [1, 1, 1], "name" : "COLOR_0"}, {"bufferView" : 0, "byteOffset" : 6624, "componentType" : 5123, "count" : 7560, "type" : "SCALAR", "max" : [6297], "min" : [0]}, {"bufferView" : 3, "byteOffset" : 0, "componentType" : 5126, "count" : 6298, "type" : "VEC3", "max" : [155.53652954101562, 97.02716827392578, 230.0303192138672], "min" : [-170.19053649902344, -159.6921844482422, 200.35801696777344], "name" : "POSITION"}, {"bufferView" : 3, "byteOffset" : 12, "componentType" : 5126, "count" : 6298, "type" : "VEC3", "max" : [0.9934471845626831, 0.9992481470108032, 1.0000044107437134], "min" : [-0.9943859577178955, -0.9945187568664551, -0.9781519174575806], "name" : "NORMAL"}, {"bufferView" : 0, "byteOffset" : 21744, "componentType" : 5123, "count" : 1260, "type" : "SCALAR", "max" : [1047], "min" : [0]}, {"bufferView" : 4, "byteOffset" : 0, "componentType" : 5126, "count" : 1048, "type" : "VEC3", "max" : [188.73309326171875, 26.653247833251953, 230.0302734375], "min" : [-196.62435913085938, -5.137825012207031, 200.35806274414062], "name" : "POSITION"}, {"bufferView" : 4, "byteOffset" : 12, "componentType" : 5126, "count" : 1048, "type" : "VEC3", "max" : [0.9999892115592957, 0.9945111870765686, 1.0000044107437134], "min" : [-0.9999892115592957, -0.9945111870765686, -0.9781519174575806], "name" : "NORMAL"}], "asset" : {"generator" : "Aspose.3D 22.10", "version" : "2.0"}, "buffers" : [{"uri" : "data:application/octet-stream;base64,", "byteLength" : 334652}], "bufferViews" : [{"buffer" : 0, "byteOffset" : 0, "byteLength" : 24264, "target" : 34963}, {"buffer" : 0, "byteOffset" : 24268, "byteLength" : 56448, "byteStride" : 24, "target" : 34962}, {"buffer" : 0, "byteOffset" : 80720, "byteLength" : 42240, "byteStride" : 44, "target" : 34962}, {"buffer" : 0, "byteOffset" : 122964, "byteLength" : 181440, "byteStride" : 24, "target" : 34962}, {"buffer" : 0, "byteOffset" : 304408, "byteLength" : 30240, "byteStride" : 24, "target" : 34962}], "images" : [{"uri" : "data:image/png;base64,"}, {"uri" : "data:image/png;base64,"}, {"uri" : "data:image/png;base64,"}, {"uri" : "data:image/png;base64,"}, {"uri" : "data:image/png;base64,"}, {"uri" : "data:image/png;base64,"}, {"uri" : "data:image/png;base64,"}, {"uri" : "data:image/png;base64,"}, {"uri" : "data:image/png;base64,"}, {"uri" : "data:image/png;base64,"}, {"uri" : "data:image/png;base64,"}, {"uri" : "data:image/png;base64,"}], "materials" : [{"name" : "", "extensions" : {"KHR_materials_pbrSpecularGlossiness" : {"diffuseFactor" : [1, 1, 1, 1], "diffuseTexture" : {"index" : 0, "texCoord" : 0}, "specularFactor" : [1, 1, 1], "glossinessFactor" : 1, "specularGlossinessTexture" : {"index" : 1, "texCoord" : 0, "scale" : 1}}}, "pbrMetallicRoughness" : {"baseColorFactor" : [1, 1, 1, 1], "baseColorTexture" : {"index" : 2, "texCoord" : 0}, "metallicFactor" : 1, "roughnessFactor" : 1, "metallicRoughnessTexture" : {"index" : 3, "texCoord" : 0}}, "emissiveFactor" : [0, 0, 0], "alphaMode" : "OPAQUE", "doubleSided" : true}, {"name" : "", "extensions" : {"KHR_materials_pbrSpecularGlossiness" : {"diffuseFactor" : [1, 1, 1, 1], "diffuseTexture" : {"index" : 4, "texCoord" : 0}, "specularFactor" : [1, 1, 1], "glossinessFactor" : 1, "specularGlossinessTexture" : {"index" : 5, "texCoord" : 0, "scale" : 1}}}, "pbrMetallicRoughness" : {"baseColorFactor" : [1, 1, 1, 1], "baseColorTexture" : {"index" : 6, "texCoord" : 0}, "metallicFactor" : 1, "roughnessFactor" : 1, "metallicRoughnessTexture" : {"index" : 7, "texCoord" : 0}}, "emissiveFactor" : [0, 0, 0], "alphaMode" : "OPAQUE", "doubleSided" : true}, {"name" : "", "extensions" : {"KHR_materials_pbrSpecularGlossiness" : {"diffuseFactor" : [1, 1, 1, 1], "diffuseTexture" : {"index" : 8, "texCoord" : 0}, "specularFactor" : [1, 1, 1], "glossinessFactor" : 1, "specularGlossinessTexture" : {"index" : 9, "texCoord" : 0, "scale" : 1}}}, "pbrMetallicRoughness" : {"baseColorFactor" : [1, 1, 1, 1], "baseColorTexture" : {"index" : 10, "texCoord" : 0}, "metallicFactor" : 1, "roughnessFactor" : 1, "metallicRoughnessTexture" : {"index" : 11, "texCoord" : 0}}, "emissiveFactor" : [0, 0, 0], "alphaMode" : "OPAQUE", "doubleSided" : true}, {"name" : "", "extensions" : {"KHR_materials_pbrSpecularGlossiness" : {"diffuseFactor" : [1, 1, 1, 1], "diffuseTexture" : {"index" : 8, "texCoord" : 0}, "specularFactor" : [1, 1, 1], "glossinessFactor" : 1, "specularGlossinessTexture" : {"index" : 9, "texCoord" : 0, "scale" : 1}}}, "pbrMetallicRoughness" : {"baseColorFactor" : [1, 1, 1, 1], "baseColorTexture" : {"index" : 10, "texCoord" : 0}, "metallicFactor" : 1, "roughnessFactor" : 1, "metallicRoughnessTexture" : {"index" : 11, "texCoord" : 0}}, "emissiveFactor" : [0, 0, 0], "alphaMode" : "OPAQUE", "doubleSided" : true}], "meshes" : [{"primitives" : [{"attributes" : {"POSITION" : 1, "NORMAL" : 2}, "indices" : 0, "material" : 0, "mode" : 4}]}, {"primitives" : [{"attributes" : {"POSITION" : 4, "NORMAL" : 5, "TEXCOORD_0" : 6, "COLOR_0" : 7}, "indices" : 3, "material" : 1, "mode" : 4}]}, {"primitives" : [{"attributes" : {"POSITION" : 9, "NORMAL" : 10}, "indices" : 8, "material" : 2, "mode" : 4}]}, {"primitives" : [{"attributes" : {"POSITION" : 12, "NORMAL" : 13}, "indices" : 11, "material" : 3, "mode" : 4}]}], "nodes" : [{"matrix" : [1, 0, 0, 0, 0, 1, 0, 0, 0, 0, 1, 0, -84.61605834960938, -22.350234985351562, 7.5, 1], "mesh" : 0, "name" : "Node #0"}, {"children" : [0], "matrix" : [1.598762461884844, -4.2380199597524304E-07, -0.7769530684255987, 0, 3.8117482286020557E-07, 1.7775539159774274, -1.852401422490668E-07, 0, 0.7769530684256208, 1.5245131364941328E-14, 1.5987624618848895, 0, -89.38008880615234, 106.97901916503906, 188.805419921875, 1], "name" : "node_id88"}, {"matrix" : [1.4099822044372559, 0, 0, 0, 0, 5.236720375691874E-07, 1.4099822750281716, 0, 0, -1.4099820366095805, 5.236719490197413E-07, 0, -5.704400062561035, -9.959381103515625, 200.0791015625, 1], "mesh" : 1, "name" : "Node #1"}, {"mesh" : 2, "name" : "Node #2"}, {"mesh" : 3, "name" : "Node #3"}, {"children" : [3, 4], "matrix" : [1, 0, 0, 0, 0, 1, 0, 0, 0, 0, 1, 0, 0, 0, -2.4026641845703125, 1], "name" : "node_id69"}, {"children" : [2, 5], "matrix" : [-0.8994166552948913, 0, 0.43709079011757523, 0, 0, 1, 0, 0, -0.43709079011757523, 0, -0.8994166552948913, 0, -17.557952880859375, 118.98452758789062, 366.43646240234375, 1], "name" : "node_id80"}, {"children" : [1, 6], "matrix" : [-0.0008130443933668842, -5.467416580366115E-11, -0.0005822018875629535, 0, 1.1990820510911357E-10, 0.001000000163912732, -2.6136099794147354E-10, 0, 0.0005822018875629438, -2.8230881183366384E-10, -0.000813044393366844, 0, -0.184000626206398, -0.10273434966802597, 0.15599747002124786, 1], "name" : "node_id100"}, {"children" : [7], "name" : "root"}], "samplers" : [{"magFilter" : 9728, "minFilter" : 9985, "wrapS" : 10497, "wrapT" : 10497}, {"magFilter" : 9728, "minFilter" : 9985, "wrapS" : 10497, "wrapT" : 10497}, {"magFilter" : 9728, "minFilter" : 9985, "wrapS" : 10497, "wrapT" : 10497}, {"magFilter" : 9728, "minFilter" : 9985, "wrapS" : 10497, "wrapT" : 10497}, {"magFilter" : 9728, "minFilter" : 9985, "wrapS" : 10497, "wrapT" : 10497}, {"magFilter" : 9728, "minFilter" : 9985, "wrapS" : 10497, "wrapT" : 10497}, {"magFilter" : 9728, "minFilter" : 9985, "wrapS" : 10497, "wrapT" : 10497}, {"magFilter" : 9728, "minFilter" : 9985, "wrapS" : 10497, "wrapT" : 10497}, {"magFilter" : 9728, "minFilter" : 9985, "wrapS" : 10497, "wrapT" : 10497}, {"magFilter" : 9728, "minFilter" : 9985, "wrapS" : 10497, "wrapT" : 10497}, {"magFilter" : 9728, "minFilter" : 9985, "wrapS" : 10497, "wrapT" : 10497}, {"magFilter" : 9728, "minFilter" : 9985, "wrapS" : 10497, "wrapT" : 10497}], "scene" : 0, "scenes" : [{"nodes" : [8]}], "textures" : [{"sampler" : 0, "source" : 0, "name" : ""}, {"sampler" : 1, "source" : 1, "name" : ""}, {"sampler" : 2, "source" : 2, "name" : ""}, {"sampler" : 3, "source" : 3, "name" : ""}, {"sampler" : 4, "source" : 4, "name" : ""}, {"sampler" : 5, "source" : 5, "name" : ""}, {"sampler" : 6, "source" : 6, "name" : ""}, {"sampler" : 7, "source" : 7, "name" : ""}, {"sampler" : 8, "source" : 8, "name" : ""}, {"sampler" : 9, "source" : 9, "name" : ""}, {"sampler" : 10, "source" : 10, "name" : ""}, {"sampler" : 11, "source" : 11, "name" : ""}]}